<svg width="70" height="64" viewBox="0 0 70 64" fill="none" xmlns="http://www.w3.org/2000/svg">
<path d="M70 32C70 49.6742 54.3315 64 35.0002 64C15.6706 64 0 49.6742 0 32C0 14.3269 15.6706 0 35.0002 0C54.3315 0 70 14.3269 70 32Z" fill="#2F65B0"/>
<path d="M35 1.84302C16.8117 1.84302 2.0152 15.3708 2.0152 32.0001C2.0152 48.631 16.8117 62.1576 35 62.1576C53.1889 62.1576 67.9843 48.631 67.9843 32.0001C67.9843 15.3708 53.1889 1.84302 35 1.84302ZM35 60.3046C18.2421 60.3046 4.60256 48.1287 4.06643 32.9258H16.2828L16.5499 31.0731H4.06643C4.60256 15.8713 18.2421 3.69422 35 3.69422C51.7585 3.69422 65.3971 15.8713 65.9323 31.0731H54.8446C53.3767 31.0731 52.0852 31.9677 51.6877 33.2571L48.0729 44.9778C47.8756 45.6199 47.4428 46.1256 46.8908 46.3572C45.8725 46.7837 44.7491 46.1657 44.3829 44.9778L32.9353 7.84782C32.7309 7.1851 31.9744 6.79779 31.2473 6.98478C30.7914 7.10403 30.4323 7.43022 30.3031 7.84782L25.0442 24.9086L24.8731 25.461L24.0823 28.0257L23.9873 28.3375L23.8174 28.8879C23.4188 30.1822 22.1284 31.0731 20.6603 31.0731H19.9875H19.5222C19.5128 31.1694 19.5056 31.2657 19.5056 31.3658C19.5056 31.4689 19.5128 31.5739 19.5244 31.674C19.5253 31.7006 19.5285 31.7273 19.5326 31.7513C19.5451 31.8505 19.5586 31.9468 19.5806 32.0411C19.5858 32.0661 19.5921 32.0878 19.5985 32.1128C19.615 32.1804 19.6348 32.249 19.6558 32.3158C19.6683 32.3559 19.6828 32.3997 19.6984 32.4408C19.7163 32.4914 19.7383 32.5456 19.7589 32.5944C19.7912 32.6686 19.8248 32.7391 19.8611 32.8134C19.8768 32.8421 19.8925 32.873 19.9092 32.9039C19.9135 32.9109 19.9185 32.9189 19.9229 32.9258H22.1042C23.5815 32.9258 24.8771 32.0231 25.2675 30.7202L25.7337 29.1645L25.8215 28.8716L26.5016 26.6044L26.6684 26.0484L29.481 16.6582C29.7096 15.8983 30.2217 15.302 30.8716 15.0377C32.0528 14.5569 33.3432 15.282 33.7552 16.6582L44.9109 53.8744C45.111 54.5406 45.8621 54.9316 46.5905 54.7481C47.0558 54.6334 47.4189 54.2998 47.5448 53.8744L53.1629 35.1341C53.5532 33.8338 54.8496 32.9258 56.3249 32.9258H65.9323C65.3971 48.1287 51.7585 60.3046 35 60.3046V60.3046Z" fill="white"/>
<path d="M34.347 26.9479C34.2542 27.1168 34.1426 27.2779 34.0171 27.4278C32.9135 28.7421 30.8552 28.988 29.4175 27.9799L26.7145 26.0828L26.6685 26.0484L26.5017 26.6045L25.8216 28.8717C25.837 28.8843 25.8539 28.8958 25.8684 28.9089C25.8684 28.9089 25.8695 28.9097 25.8705 28.9109C25.9561 28.988 26.0395 29.0683 26.1176 29.1549C26.196 29.238 26.2712 29.3266 26.3399 29.4192C26.4079 29.5109 26.4693 29.6015 26.5277 29.6949C26.5298 29.6995 26.533 29.7024 26.5349 29.7064C26.5903 29.7958 26.6384 29.8876 26.6832 29.9801C26.6873 29.9917 26.6948 30.0011 26.6989 30.0114C26.7406 30.0982 26.7751 30.1871 26.8083 30.2757C26.8146 30.2966 26.823 30.3129 26.8303 30.331C26.8575 30.413 26.8794 30.4969 26.9023 30.581C26.9086 30.6097 26.919 30.6372 26.9252 30.6667C26.9429 30.7429 26.9535 30.8232 26.9648 30.9014C26.971 30.9376 26.9795 30.9728 26.9848 31.0121C26.9943 31.0961 26.9961 31.1809 26.9984 31.2678C26.9993 31.301 27.0034 31.3317 27.0034 31.3659C27.0034 33.0198 25.7191 34.4015 24.0103 34.7225C23.9686 34.7305 23.926 34.7351 23.883 34.7397C23.6786 34.7718 23.4688 34.7913 23.255 34.7913C23.1403 34.7913 23.0254 34.7856 22.9139 34.7742C22.8847 34.7742 22.8565 34.7718 22.8273 34.7684C22.7229 34.7581 22.6216 34.7431 22.5207 34.726C22.5113 34.7249 22.5038 34.7225 22.4947 34.7225C22.389 34.702 22.2858 34.6743 22.1858 34.648C22.1523 34.6388 22.1222 34.6308 22.0909 34.6216C22.0075 34.5941 21.9259 34.5678 21.8466 34.5368C21.8237 34.5299 21.8031 34.5241 21.782 34.5161C21.6923 34.4806 21.6036 34.4405 21.517 34.4003C21.4803 34.3831 21.4449 34.3614 21.4095 34.3442C21.35 34.3143 21.2938 34.2834 21.2364 34.2489C21.1894 34.2204 21.1424 34.194 21.0966 34.1653C21.0383 34.1275 20.9809 34.0873 20.9235 34.0472C20.8827 34.0151 20.842 33.9819 20.8025 33.952C20.7658 33.9234 20.7314 33.8959 20.6971 33.8638C20.6251 33.803 20.5551 33.7399 20.4905 33.6711C20.4655 33.6482 20.4382 33.6241 20.4144 33.5954C20.3727 33.5529 20.3341 33.5094 20.2943 33.4613C20.2736 33.4372 20.2548 33.4143 20.2351 33.389C20.1576 33.2916 20.0858 33.1907 20.0199 33.0898C20.0137 33.0817 20.0074 33.0703 20.0024 33.0623C20.0002 33.0611 20.0002 33.0611 19.9992 33.0611C19.9729 33.0141 19.9478 32.9717 19.9231 32.9259C19.9186 32.9189 19.9136 32.9109 19.9093 32.904C19.8926 32.8731 19.8769 32.8421 19.8613 32.8134C19.825 32.7392 19.7913 32.6687 19.7591 32.5944C19.7384 32.5457 19.7164 32.4915 19.6986 32.4408C19.6829 32.3998 19.6684 32.3559 19.6559 32.3158C19.6349 32.2491 19.6152 32.1805 19.5986 32.1128C19.5923 32.0879 19.586 32.0661 19.5807 32.0412C19.5588 31.9469 19.5452 31.8505 19.5327 31.7513C19.5286 31.7273 19.5255 31.7007 19.5245 31.674C19.513 31.574 19.5057 31.469 19.5057 31.3659C19.5057 31.2658 19.513 31.1695 19.5223 31.0732C19.5245 31.054 19.5245 31.0339 19.5255 31.0158C19.5255 31.0149 19.5255 31.0149 19.5255 31.0149C19.5264 31.0035 19.5296 30.9921 19.5318 30.9797C19.543 30.8793 19.5588 30.7822 19.5807 30.6859C19.5891 30.6449 19.6026 30.6056 19.6111 30.5675C19.6308 30.499 19.6465 30.4322 19.6684 30.3663C19.6829 30.3216 19.7017 30.2805 19.7174 30.2355C19.7416 30.1774 19.7613 30.1174 19.7883 30.0593C19.8092 30.0143 19.833 29.9725 19.854 29.9294C19.8814 29.8741 19.9093 29.8199 19.9397 29.7683C19.9635 29.7245 19.9908 29.6835 20.0177 29.6405C20.0504 29.59 20.0836 29.5393 20.1171 29.4917C20.1472 29.4498 20.1785 29.4105 20.2099 29.3704C20.2463 29.324 20.2839 29.277 20.3225 29.2323C20.357 29.1933 20.3915 29.156 20.4269 29.1197C20.4676 29.0769 20.5103 29.0339 20.5529 28.9921C20.5906 28.9565 20.6282 28.9233 20.6668 28.888C20.7126 28.8487 20.7586 28.8097 20.8075 28.7725C20.8483 28.74 20.8878 28.7086 20.9298 28.6761C20.9809 28.6429 21.0307 28.6085 21.0832 28.5741C21.1258 28.5455 21.1696 28.518 21.2145 28.4921C21.2679 28.4597 21.3239 28.4283 21.3781 28.3987C21.4252 28.3758 21.47 28.352 21.517 28.3282C21.5754 28.3012 21.635 28.2757 21.6942 28.2519C21.7426 28.2307 21.7882 28.2107 21.8362 28.1926C21.8999 28.1688 21.9636 28.1487 22.0281 28.1286C22.0762 28.1135 22.1231 28.0972 22.1721 28.0828C22.241 28.0647 22.3119 28.0495 22.3818 28.0343C22.4288 28.0238 22.4736 28.0123 22.5207 28.0037C22.601 27.9885 22.6812 27.9799 22.7627 27.9684C22.8022 27.9647 22.842 27.957 22.8837 27.9541C23.0057 27.9417 23.1299 27.9372 23.255 27.9372C23.3741 27.9372 23.4889 27.9417 23.6046 27.9524C23.7153 27.9618 23.8225 27.9771 23.9292 27.9942C23.9331 27.9951 23.9354 27.9951 23.9394 27.9951V27.9963C23.9884 28.0037 24.0344 28.0151 24.0824 28.0258L24.8732 25.4611L25.0443 24.9087L24.918 24.8219L19.3345 20.901C17.0112 21.6285 14.9864 22.9849 13.5278 24.7894C13.7345 24.7789 13.9411 24.7857 14.1464 24.8103C15.9417 25.0279 17.2063 26.534 16.9686 28.1765L16.5594 31.0158L16.5501 31.0732L16.2829 32.9259L16.2631 33.0623L15.3056 39.6989C17.1551 41.1757 19.4534 42.101 21.8926 42.3533C21.7789 42.1961 21.682 42.0288 21.6026 41.8533C20.9088 40.3215 21.7067 38.5695 23.3791 37.9342L35.1262 33.4923C35.5977 31.2887 35.3274 29.0044 34.347 26.9479V26.9479Z" fill="#B3B3B3"/>
</svg>
